{"title":"Tu Hi Junoon -  Full Video HD 1080p - DHOOM 3 - Amir Khan, Katri","uid":9463120,"size":155379472,"categoryP":"video","categoryS":"music_videos","magnet":"?xt=urn:btih:45c6d72dbea8b435390130d6411d0db9d9606dfc&amp;dn=Tu+Hi+Junoon+-++Full+Video+HD+1080p+-+DHOOM+3+-+Amir+Khan%2C+Katri&amp;tr=udp%3A%2F%2Ftracker.openbittorrent.com%3A80&amp;tr=udp%3A%2F%2Fopen.demonii.com%3A1337&amp;tr=udp%3A%2F%2Ftracker.coppersurfer.tk%3A6969&amp;tr=udp%3A%2F%2Fexodus.desync.com%3A6969","seeders":3,"leechers":0,"uploader":"Palash995","files":1,"time":1389388780,"description":"[center][b][size=200][color=red]Without Any reason..Don't Dislike the torrent.....please check and give your feedback[/color][/size]\n\n[img]http://i843.photobucket.com/albums/zz358/0Krish0/qiWyCf1pvj_zps682a8ccb.png[/img]\n\n[size=100][color=red]Tu Hi Junoon - Full Video HD 1080p - DHOOM 3 - Amir Khan, Katrina Kaif[/color][/size]\n\n\n[img]http://tollywood.net/telugu/Reviews/539636575234b1e80742ea2aa5ae7ec9.jpg[/img]\n\nDHOOM:3. Starring Aamir Khan, Abhishek Bachchan, Katrina Kaif &amp; Uday Chopra\n\nSong: Tu Hi Junoon\nSinger: Mohit Chauhan\nMusic: Pritam\nLyrics: Kausar Munir\n\nProduced by Aditya Chopra, DHOOM:3 is written and directed by Vijay Krishna Acharya, who had also written DHOOM &amp; DHOOM:2. Apart from Aamir Khan, who plays the anti-hero in the film, and Katrina Kaif, both Abhishek Bachchan and Uday Chopra will continue in their now iconic roles of Jai Dixit and Ali.\n\nScreenshots:-\n\n\n\n\n[img]http://img585.imageshack.us/img585/5489/ndo3.jpg[/img]\n\n\n\n\n[img]http://img5.imageshack.us/img5/7759/zmce.jpg[/img]\n\n\n[img]http://img707.imageshack.us/img707/9536/n8hg.jpg[/img]\n\n\nMedia Info:-\n\nGeneral\nComplete name : Tu Hi Junoon - Full Video HD 1080p - DHOOM 3 - Amir Khan, Katrina Kaif - {DAKU RG} {GreatPalash}.mp4\nFormat : MPEG-4\nFormat profile : Base Media\nCodec ID : isom\nFile size : 148 MiB\nDuration : 4mn 52s\nOverall bit rate : 4 243 Kbps\nWriting application : Lavf53.31.100\n\nVideo\nID : 1\nFormat : AVC\nFormat/Info : Advanced Video Codec\nFormat profile : &lt;a class=&quot;__cf_email__&quot; href=&quot;/cdn-cgi/l/email-protection&quot; data-cfemail=&quot;733b1a141b333f475d43&quot;&gt;[email&amp;#160;protected]&lt;/a&gt;&lt;script cf-hash='f9e31' type=&quot;text/javascript&quot;&gt;\n/* &lt;![CDATA[ */!function(){try{var t=&quot;currentScript&quot;in document?document.currentScript:function(){for(var t=document.getElementsByTagName(&quot;script&quot;),e=t.length;e--;)if(t[e].getAttribute(&quot;cf-hash&quot;))return t[e]}();if(t&amp;&amp;t.previousSibling){var e,r,n,i,c=t.previousSibling,a=c.getAttribute(&quot;data-cfemail&quot;);if(a){for(e=&quot;&quot;,r=parseInt(a.substr(0,2),16),n=2;a.length-n;n+=2)i=parseInt(a.substr(n,2),16)^r,e+=String.fromCharCode(i);e=document.createTextNode(e),c.parentNode.replaceChild(e,c)}}}catch(u){}}();/* ]]&gt; */&lt;/script&gt;\nFormat settings, CABAC : Yes\nFormat settings, ReFrames : 2 frames\nCodec ID : avc1\nCodec ID/Info : Advanced Video Coding\nDuration : 4mn 52s\nBit rate : 4 111 Kbps\nWidth : 1 920 pixels\nHeight : 1 080 pixels\nDisplay aspect ratio : 16:9\nFrame rate mode : Constant\nFrame rate : 24.000 fps\nColor space : YUV\nChroma subsampling : 4:2:0\nBit depth : 8 bits\nScan type : Progressive\nBits/(Pixel*Frame) : 0.083\nStream size : 144 MiB (97%)\n\nAudio\nID : 2\nFormat : AAC\nFormat/Info : Advanced Audio Codec\nFormat profile : LC\nCodec ID : 40\nDuration : 4mn 52s\nBit rate mode : Constant\nBit rate : 126 Kbps\nChannel(s) : 2 channels\nChannel positions : Front: L R\nSampling rate : 44.1 KHz\nCompression mode : Lossy\nStream size : 4.39 MiB (3%)\n\n[IMG]http://imageshack.us/a/img89/4822/zka.gif[/IMG]\n\n[IMG]http://imageshack.us/a/img200/185/tj8.gif[/IMG]\n\n[IMG]http://imageshack.us/a/img593/9603/ua8.gif[/IMG]\n\n[IMG]http://imageshack.us/a/img707/5608/ysmp.png[/IMG][/b][/center]","torrent":{"xt":"urn:btih:45c6d72dbea8b435390130d6411d0db9d9606dfc","amp;dn":"Tu+Hi+Junoon+-++Full+Video+HD+1080p+-+DHOOM+3+-+Amir+Khan%2C+Katri","amp;tr":["udp%3A%2F%2Ftracker.openbittorrent.com%3A80","udp%3A%2F%2Fopen.demonii.com%3A1337","udp%3A%2F%2Ftracker.coppersurfer.tk%3A6969","udp%3A%2F%2Fexodus.desync.com%3A6969"],"infoHash":"45c6d72dbea8b435390130d6411d0db9d9606dfc","infoHashBuffer":{"type":"Buffer","data":[69,198,215,45,190,168,180,53,57,1,48,214,65,29,13,185,217,96,109,252]},"announce":[],"urlList":[]}}